<?xml version="1.0" standalone="no"?><!DOCTYPE svg PUBLIC "-//W3C//DTD SVG 1.1//EN" "http://www.w3.org/Graphics/SVG/1.1/DTD/svg11.dtd"><svg class="icon" width="200px" height="200.00px" viewBox="0 0 1024 1024" version="1.1" xmlns="http://www.w3.org/2000/svg"><path d="M442.181818 442.181818h-162.909091c-13.963636 0-23.272727 9.309091-23.272727 23.272727s9.309091 23.272727 23.272727 23.272728h162.909091c13.963636 0 23.272727-9.309091 23.272727-23.272728s-9.309091-23.272727-23.272727-23.272727z m-162.909091-162.909091h465.454546c13.963636 0 23.272727-9.309091 23.272727-23.272727s-9.309091-23.272727-23.272727-23.272727H279.272727c-13.963636 0-23.272727 9.309091-23.272727 23.272727s9.309091 23.272727 23.272727 23.272727z m567.854546 602.763637c74.472727-79.127273 74.472727-207.127273-4.654546-286.254546-79.127273-81.454545-211.781818-81.454545-293.236363 0-79.127273 81.454545-79.127273 211.781818 0 293.236364 41.890909 39.563636 93.090909 60.509091 146.618181 60.509091 39.563636 0 79.127273-11.636364 114.036364-34.909091l104.727273 100.072727c9.309091 9.309091 23.272727 9.309091 32.581818 0 9.309091-9.309091 9.309091-23.272727 0-32.581818l-100.072727-100.072727z m-265.309091-23.272728c-62.836364-62.836364-62.836364-167.563636 0-230.4 32.581818-32.581818 72.145455-46.545455 114.036363-46.545454 41.890909 0 83.781818 16.290909 116.363637 46.545454 62.836364 62.836364 62.836364 167.563636 0 230.4-62.836364 65.163636-167.563636 65.163636-230.4 0zM977.454545 512V93.090909c0-51.2-41.890909-93.090909-93.090909-93.090909H139.636364C88.436364 0 46.545455 41.890909 46.545455 93.090909v837.818182c0 51.2 41.890909 93.090909 93.090909 93.090909h279.272727c13.963636 0 23.272727-9.309091 23.272727-23.272727s-9.309091-23.272727-23.272727-23.272728H139.636364c-25.6 0-46.545455-20.945455-46.545455-46.545454V93.090909c0-25.6 20.945455-46.545455 46.545455-46.545454h744.727272c25.6 0 46.545455 20.945455 46.545455 46.545454v418.909091c0 13.963636 9.309091 23.272727 23.272727 23.272727s23.272727-9.309091 23.272727-23.272727z" fill="#DDDDDD" /></svg>