<?xml version="1.0" standalone="no"?><!DOCTYPE svg PUBLIC "-//W3C//DTD SVG 1.1//EN" "http://www.w3.org/Graphics/SVG/1.1/DTD/svg11.dtd"><svg class="icon" width="200px" height="167.87px" viewBox="0 0 1220 1024" version="1.1" xmlns="http://www.w3.org/2000/svg"><path d="M1037.708 979.485H278.177c-23.582 0-42.777-19.181-42.777-42.763V702.954h38.065v233.768c0 2.558 2.156 4.698 4.714 4.698h759.531c2.543 0 4.698-2.141 4.698-4.698V82.267c0-2.558-2.156-4.729-4.698-4.729H278.177c-2.558 0-4.714 2.171-4.714 4.729v325.092h-38.065V82.267c0-23.582 19.195-42.793 42.777-42.793h759.531c23.582 0 42.763 19.211 42.763 42.793v854.455c0.001 23.582-19.179 42.763-42.761 42.763z m-63.014-532.752l-38.065-0.297 1.293-165.878-162.115 49.513-11.121-36.398 211.688-64.681zM147.241 733.196l-27.805-25.991L330.01 482.209l100.097 98.582 155.96-169.594 115.932 110.178 222.483-262.882 29.054 24.564-248.533 293.69-117.122-111.308-156.405 170.129L331.11 536.75z" fill="#DDDDDD" /></svg>