<?xml version="1.0" standalone="no"?><!DOCTYPE svg PUBLIC "-//W3C//DTD SVG 1.1//EN" "http://www.w3.org/Graphics/SVG/1.1/DTD/svg11.dtd"><svg class="icon" width="200px" height="195.61px" viewBox="0 0 1047 1024" version="1.1" xmlns="http://www.w3.org/2000/svg"><path d="M502.484749 0h491.332968l1.39105 0.526027c-7.118904 1.063744-14.319635 0.607854-21.473607 0.619544-150.408767 0.011689-300.805845 0-451.214612 0-7.142283 0.035068-14.319635 0.420822-21.40347-0.689681l1.367671-0.45589z" fill="#ffffff" /><path d="M470.385388 14.483288c8.568402-7.691689 19.568219-11.841461 30.73169-14.027398 7.083836 1.110502 14.261187 0.724749 21.40347 0.689681 150.408767 0 300.805845 0.011689 451.214612 0 7.153973-0.011689 14.354703 0.444201 21.473607-0.619544 2.571689 0.642922 5.178447 1.16895 7.773516 1.823562 18.118721 4.582283 33.373516 18.679817 39.779361 36.190685 2.174247 5.517443 2.840548 11.432329 3.880913 17.21863-0.642922 6.335708-0.420822 12.706484-0.432511 19.053881v833.461188c0.257169 19.603288-0.549406 39.229954 0.432511 58.798173-0.981918 5.833059-1.63653 11.783014-3.775708 17.347215-6.160365 17.277078-20.982648 31.129132-38.598721 36.202374-4.512146 1.309224-9.211324 1.788493-13.816986 2.630137-13.349406-0.911781-26.733881-0.198721-40.094978-0.420822H599.659543c0.058447-15.570411-0.070137-31.129132 0.058448-46.687854 129.367671-0.081826 258.735342 0.046758 388.103014-0.070137 6.838356 0.338995 12.402557-6.078539 11.759634-12.776621 0.035068-297.322374-0.011689-594.656438 0.023379-891.990502-0.128584-5.318721 0.479269-10.719269-0.584475-15.967854-1.379361-5.365479-7.013699-8.591781-12.344109-8.252785-159.012237-0.023379-318.024475-0.023379-477.025023-0.01169-6.943562-0.572785-13.396164 5.388858-12.835069 12.449315-0.058447 81.45242 0.035068 162.91653-0.046758 244.36895-15.558721 0.058447-31.129132 0.058447-46.687853 0-0.081826-78.307945 0-156.61589-0.046758-234.923835 0.011689-7.726758-0.350685-15.558721 1.472876-23.133516 2.700274-12.122009 9.456804-23.2621 18.878539-31.351233z" fill="#ffffff" /><path d="M596.620274 167.826119c4.874521-0.713059 9.819178-0.374064 14.740457-0.432512h281.787032c10.485479-0.350685 20.842374 5.435616 25.997442 14.565114 5.458995 9.223014 5.190137 21.450228-0.68968 30.416074-5.365479 8.521644-15.313242 13.72347-25.36621 13.442922-96.637078 0.046758-193.262466 0-289.899543 0.035068-6.721461 0.116895-13.559817-1.718356-18.960366-5.80968-8.708676-6.347397-13.302648-17.768037-11.362191-28.370411 1.846941-11.911598 11.86484-21.941187 23.753059-23.846575zM39.826119 344.781735c8.626849-2.910685 17.826484-2.548311 26.804018-2.524931 200.661918 0.035068 401.335525-0.023379 601.997443 0.035068 21.613881-0.046758 42.315982 14.039087 50.358356 34.074886 3.670502 8.463196 4.465388 17.803105 4.19653 26.932603-0.046758 143.804201 0 287.608402-0.01169 431.412602 0.105205 14.307945-5.57589 28.592511-15.675616 38.762375-10.00621 10.450411-24.314155 16.599087-38.785754 16.692603-71.808584 0.128584-143.617169-0.128584-215.425753 0.128584-0.128584 25.623379-0.128584 51.246758 0 76.870137 20.363105 0.257169 40.7379 0 61.101005 0.093516 9.433425-0.023379 18.434338 5.657717 22.969863 13.852055 4.406941 7.750137 4.710868 17.6979 0.666301 25.681826-4.301735 8.83726-13.688402 15.184658-23.624475 15.102831-101.733699-0.011689-203.467397 0.035068-305.201096-0.023379-14.506667-0.128584-26.76895-13.945571-25.8221-28.288584 0.128584-13.688402 12.11032-26.172785 25.903927-26.30137 20.561826-0.151963 41.135342 0.187032 61.697169-0.151963 0-25.716895 0.070137-51.445479-0.035069-77.162375-71.598174-0.035068-143.196347 0.023379-214.79452-0.023379-19.614977 0.128584-38.727306-11.140091-48.113973-28.358721-4.406941-7.387763-5.985023-15.932785-7.329315-24.290777 1.040365-17.616073 0.198721-35.290594 0.46758-52.930045V423.159817c-0.163653-9.456804 0.444201-18.936986-0.490959-28.358721 1.087123-5.482374 1.788493-11.093333 3.787397-16.353607 5.716164-15.897717 19.194155-28.744475 35.360731-33.665754m13.197443 44.91105c-3.530228 1.344292-5.458995 5.166758-5.143379 8.825571 0.011689 141.863744 0.011689 283.727489 0 425.591233 0.070137 4.231598-0.292237 8.509954 0.280548 12.729863 0.806575 4.114703 5.073242 6.569498 9.082739 6.335708 74.824475 0.058447 149.64895 0.011689 224.473425 0.023379 128.198721 0.490959 256.409132 0.116895 384.607854 0.257169 5.190137 0.677991 10.532237-3.425023 10.052968-8.895708 0.070137-145.323836 0.023379-290.67105 0.023379-435.994886 0.642922-5.634338-4.488767-10.333516-10.041279-9.53863-200.299543-0.011689-400.599087 0.023379-600.89863-0.011689-4.138082 0.128584-8.416438-0.490959-12.437625 0.67799m271.991233 500.591051c0.023379 25.775342-0.093516 51.538995 0.058447 77.302648 24.957078-0.023379 49.902466 0 74.847854-0.011689 0.268858-25.751963 0.140274-51.515616 0.058447-77.27927-24.980457-0.175342-49.972603-0.163653-74.964748-0.011689zM818.74411 392.322922c2.524932-0.444201 5.108311-0.490959 7.691689-0.514338 20.2579 0.035068 40.527489 0.035068 60.785388 0.01169 4.991416 0.023379 10.111416-0.280548 14.950868 1.192329 8.825571 2.571689 16.213333 9.562009 19.217534 18.258995 3.647123 9.947763 1.250776 21.800913-6.008402 29.515982-5.610959 6.218813-13.945571 9.643836-22.291872 9.468493-22.993242 0.023379-45.986484 0.070137-68.968036-0.011689-8.860639 0.046758-17.569315-4.19653-22.993242-11.18685-6.405845-7.995616-8.077443-19.486393-4.091325-28.943196 3.576986-9.106119 12.051872-16.108128 21.707398-17.791416z" fill="#ffffff" /><path d="M331.105023 463.184658c31.199269-6.674703 64.479269-3.167854 93.574429 9.924383 16.28347 7.22411 31.140822 17.475799 43.964201 29.808219-10.859543 11.093333-21.906119 22.011324-32.894247 32.976073-13.548128-12.320731-29.773151-21.87105-47.669771-26.161096-24.103744-5.996712-50.358356-3.26137-72.533334 8.007306-11.069954 5.412237-20.912511 13.068858-29.527671 21.847672-11.16347-10.847854-22.315251-21.765845-32.987762-33.104658 21.041096-21.672329 48.452968-37.149224 78.074155-43.297899z" fill="#ffffff" /><path d="M507.34758 485.137534c4.547215-4.687489 10.964749-7.539726 17.534246-7.294246 9.959452 0.011689 19.346119 7.235799 21.917809 16.844566 2.536621 8.264475-0.163653 17.604384-6.370777 23.530959-52.988493 53.000183-105.988676 105.976986-158.965479 158.977169-3.95105 3.880913-7.644932 8.334612-12.823379 10.625753-7.633242 3.471781-17.206941 2.466484-23.799817-2.79379-3.226301-2.606758-5.996712-5.716164-8.942466-8.61516-36.237443-36.249132-72.486575-72.486575-108.735708-108.724018-4.558904-4.442009-7.317626-10.719269-7.189041-17.113425-0.058447-8.930776 5.610959-17.522557 13.781918-21.099543 8.498265-3.939361 19.264292-2.057352 25.868858 4.593973 33.198174 33.0579 66.197626 66.314521 99.442557 99.313972 49.469954-49.364749 98.858082-98.823014 148.281279-148.24621zM818.74411 541.948493c4.465388-0.736438 9.024292-0.46758 13.548127-0.502648 18.317443 0.011689 36.623196 0.023379 54.92895 0 4.991416 0.023379 10.111416-0.292237 14.962557 1.204018 8.825571 2.56 16.201644 9.55032 19.205845 18.247306 3.647123 9.947763 1.250776 21.800913-6.008402 29.527671-5.610959 6.207123-13.95726 9.632146-22.291872 9.456804-22.595799 0.046758-45.191598 0.023379-67.787397 0.023379-7.820274 0.187032-15.710685-2.618447-21.333334-8.112512-8.112511-7.528037-11.245297-19.907215-7.563105-30.357625 3.214612-9.889315 12.063562-17.709589 22.338631-19.486393z" fill="#ffffff" /><path d="M472.010228 607.608402c12.379178-12.051872 24.302466-24.594703 36.810229-36.506302 12.250594 41.497717 4.722557 88.232329-19.194156 124.224293-20.222831 30.790137-51.924749 53.911963-87.601096 63.28694-41.228858 11.221918-87.133516 4.009498-122.716347-19.720182-30.579726-19.930594-53.479452-51.270137-63.123287-86.467215-6.803288-24.419361-7.247489-50.568767-1.531324-75.245297 4.056256 2.735342 7.200731 6.51105 10.660821 9.912694 10.134795 10.146484 20.304658 20.281279 30.439453 30.416073 1.998904 1.63653 2.174247 4.266667 2.443105 6.651325 2.548311 23.402374 13.524749 45.752694 30.299178 62.246575 14.42484 14.483288 33.209863 24.524566 53.245662 28.522374 19.147397 3.880913 39.358539 2.314521 57.652602-4.535525 21.438539-7.925479 40.059909-23.145205 52.228676-42.491324 10.0179-15.82758 15.698995-34.378813 16.119818-53.117078-0.444201-3.214612 2.302831-5.143379 4.266666-7.177351zM818.74411 691.574064c3.308128-0.572785 6.686393-0.514338 10.052968-0.514338 21.835982 0.081826 43.683653-0.035068 65.531324 0.046758 10.380274 0 20.398174 6.148676 25.249315 15.301553 4.149772 7.598174 4.617352 17.054977 1.297534 25.038904-3.71726 9.129498-12.355799 16.119817-22.128219 17.616073-4.593973 0.666301-9.234703 0.45589-13.852055 0.479269-19.08895-0.011689-38.1779-0.035068-57.266849 0.01169-4.88621 0.011689-9.889315-0.245479-14.43653-2.174247-10.111416-3.997808-17.522557-13.992329-18.223927-24.863562-1.39105-14.378082 9.503562-28.61589 23.776439-30.9421z" fill="#ffffff" /><path d="M1046.642557 55.758904l0.736438 1.39105v908.531142l-0.736438 1.39105c-0.981918-19.568219-0.175342-39.194886-0.432511-58.798173V74.812785c0.011689-6.347397-0.210411-12.718174 0.432511-19.053881z" fill="#ffffff" /><path d="M0 396.192146l0.677991-1.39105c0.93516 9.421735 0.327306 18.901918 0.490959 28.358721v361.20548c-0.268858 17.639452 0.572785 35.313973-0.46758 52.930045l-0.70137-1.39105V396.192146z" fill="#ffffff" /><path d="M599.659543 1022.83105H950.356164c13.361096 0.2221 26.745571-0.490959 40.094978 0.420822l-1.391051 0.748128H599.659543v-1.16895z" fill="#ffffff" /></svg>