<?xml version="1.0" standalone="no"?><!DOCTYPE svg PUBLIC "-//W3C//DTD SVG 1.1//EN" "http://www.w3.org/Graphics/SVG/1.1/DTD/svg11.dtd"><svg class="icon" width="200px" height="200.00px" viewBox="0 0 1024 1024" version="1.1" xmlns="http://www.w3.org/2000/svg"><path d="M506.046512 940.722605a27.386047 27.386047 0 0 1-19.372652-7.941954l-381.023255-377.046325a274.729674 274.729674 0 0 1 0-391.40614 281.71907 281.71907 0 0 1 395.502139 0l4.893768 4.750884 0.500093-0.500093c107.63907-106.519814 283.731349-111.604093 392.537302-11.311628a274.777302 274.777302 0 0 1 7.322791 398.395535l-381.023256 377.046325a27.386047 27.386047 0 0 1-19.33693 8.013396z m-202.585303-814.08a235.555721 235.555721 0 0 0-166.757209 68.357953 231.685953 231.685953 0 0 0 0 330.061395L506.046512 890.64186l369.402046-365.544186A231.721674 231.721674 0 0 0 869.209302 189.070884c-91.683721-84.539535-240.52093-79.943442-331.668837 10.251907L506.046512 230.483349l-35.851907-35.482791a235.543814 235.543814 0 0 0-166.733396-68.357953z" fill="#DDDDDD" /><path d="M541.588837 755.128558a21.694512 21.694512 0 0 1-15.47907-6.441674 22.063628 22.063628 0 0 1 0-31.07721l269.335814-270.931348a123.344372 123.344372 0 0 0 0-173.472745 121.546419 121.546419 0 0 0-172.413023 0 21.74214 21.74214 0 0 1-30.886698 0 22.063628 22.063628 0 0 1 0-31.077209 165.054512 165.054512 0 0 1 234.186419 0 167.519256 167.519256 0 0 1 0 235.615256L557.032186 748.698791a21.694512 21.694512 0 0 1-15.443349 6.429767z" fill="#DDDDDD" /></svg>