<?xml version="1.0" standalone="no"?><!DOCTYPE svg PUBLIC "-//W3C//DTD SVG 1.1//EN" "http://www.w3.org/Graphics/SVG/1.1/DTD/svg11.dtd"><svg class="icon" width="200px" height="200.00px" viewBox="0 0 1024 1024" version="1.1" xmlns="http://www.w3.org/2000/svg"><path d="M518.826667 588.8c-131.413333 0-238.933333-107.52-238.933334-238.933333s107.52-238.933333 238.933334-238.933334 238.933333 107.52 238.933333 238.933334-107.52 238.933333-238.933333 238.933333z m0-409.6c-93.866667 0-170.666667 76.8-170.666667 170.666667s76.8 170.666667 170.666667 170.666666 170.666667-76.8 170.666666-170.666666-76.8-170.666667-170.666666-170.666667z" fill="#ffffff" /><path d="M112.64 913.066667h-6.826667c-18.773333-3.413333-30.72-22.186667-25.6-40.96 10.24-42.666667 25.6-85.333333 47.786667-122.88 80.213333-138.24 225.28-221.866667 384-221.866667 97.28 0 191.146667 32.426667 271.36 92.16 15.36 11.946667 18.773333 32.426667 6.826667 47.786667-11.946667 15.36-32.426667 18.773333-47.786667 6.826666-68.266667-51.2-146.773333-78.506667-230.4-78.506666-134.826667 0-257.706667 69.973333-325.973333 187.733333-18.773333 30.72-32.426667 66.56-40.96 102.4-1.706667 17.066667-17.066667 27.306667-32.426667 27.306667z" fill="#ffffff" /><path d="M911.36 827.733333h-170.666667c-18.773333 0-34.133333-15.36-34.133333-34.133333s15.36-34.133333 34.133333-34.133333h170.666667c18.773333 0 34.133333 15.36 34.133333 34.133333s-15.36 34.133333-34.133333 34.133333z" fill="#ffffff" /><path d="M826.026667 913.066667c-18.773333 0-34.133333-15.36-34.133334-34.133334v-170.666666c0-18.773333 15.36-34.133333 34.133334-34.133334s34.133333 15.36 34.133333 34.133334v170.666666c0 18.773333-15.36 34.133333-34.133333 34.133334z" fill="#ffffff" /></svg>