<?xml version="1.0" encoding="utf-8"?>
<!-- Generator: Adobe Illustrator 25.4.1, SVG Export Plug-In . SVG Version: 6.00 Build 0)  -->
<svg version="1.1" id="图层_1" xmlns="http://www.w3.org/2000/svg" xmlns:xlink="http://www.w3.org/1999/xlink" x="0px" y="0px"
	 viewBox="0 0 70 87.5" style="enable-background:new 0 0 70 87.5;" xml:space="preserve">
<path d="M3.2,70c-0.6,0-1-0.5-1-1c0-0.3,0.1-0.6,0.4-0.8l11.7-9c0.3-0.2,0.7-0.3,1-0.1l14,6.5c3,1.4,6.5,1.4,9.6,0.1l26.7-11.9
	c-1-2.5-3.6-3.9-6.3-3.3l-20,4.6c-0.5,0.1-1.1-0.2-1.2-0.7c0,0,0,0,0,0c-0.1-0.5,0.2-1.1,0.7-1.2c0,0,0,0,0,0l20-4.6
	c1.9-0.4,3.9-0.1,5.6,1c1.7,1,2.9,2.7,3.3,4.7c0.1,0.5-0.1,0.9-0.6,1.1L39.7,67.6c-3.6,1.6-7.7,1.6-11.2-0.1L15,61.2L3.8,69.8
	C3.6,69.9,3.4,70,3.2,70z"/>
<path d="M37.2,55.4H25.3c-0.6,0-1-0.4-1-1s0.4-1,1-1h11.9c3.3,0,6.1-2.4,6.6-5.6H29.6c-1.8,0-3.1-1-4.7-2.1
	c-2.3-1.8-4.9-3.1-7.7-3.8c-6.5-1.6-13.2,7-13.2,7.1c-0.3,0.4-1,0.5-1.4,0.2s-0.5-1-0.2-1.4c0.3-0.4,7.6-9.7,15.3-7.8
	c3,0.8,5.9,2.2,8.4,4.1c1.4,1,2.4,1.7,3.5,1.7h15.3c0.6,0,1,0.4,1,1C45.9,51.5,42,55.4,37.2,55.4z"/>
<path d="M26.6,37.4h-6.8c-0.6,0-1-0.4-1-1V26.3c0-0.6,0.4-1,1-1h6.8c0.6,0,1,0.4,1,1v10.2C27.6,37,27.1,37.4,26.6,37.4z M20.8,35.4
	h4.8v-8.2h-4.8V35.4z"/>
<path d="M39.5,37.4h-6.8c-0.6,0-1-0.4-1-1v-26c0-0.6,0.4-1,1-1h6.8c0.6,0,1,0.4,1,1v26C40.5,37,40.1,37.4,39.5,37.4z M33.8,35.4h4.8
	v-24h-4.8V35.4z"/>
<path d="M52.5,37.4h-6.8c-0.6,0-1-0.4-1-1V16.9c0-0.6,0.4-1,1-1h6.8c0.6,0,1,0.4,1,1v19.5C53.5,37,53,37.4,52.5,37.4z M46.7,35.4
	h4.8V17.9h-4.8V35.4z"/>
<path d="M65.4,37.4h-6.8c-0.6,0-1-0.4-1-1V1c0-0.6,0.4-1,1-1h6.8c0.6,0,1,0.4,1,1v35.4C66.4,37,66,37.4,65.4,37.4z M59.7,35.4h4.8V2
	h-4.8V35.4z"/>
</svg>
